<svg width="23" height="23" viewBox="0 0 23 23" fill="none" xmlns="http://www.w3.org/2000/svg">
<path fill-rule="evenodd" clip-rule="evenodd" d="M0.625 0.625V17.5417H14.1505V16.3333H1.83333V1.83333H18.1458V3.11417H19.3542V0.625H0.625ZM19.3542 6.66667C19.3542 6.98714 19.2269 7.29448 19.0003 7.52109C18.7736 7.74769 18.4663 7.875 18.1458 7.875C17.8254 7.875 17.518 7.74769 17.2914 7.52109C17.0648 7.29448 16.9375 6.98714 16.9375 6.66667C16.9375 6.3462 17.0648 6.03885 17.2914 5.81225C17.518 5.58564 17.8254 5.45833 18.1458 5.45833C18.4663 5.45833 18.7736 5.58564 19.0003 5.81225C19.2269 6.03885 19.3542 6.3462 19.3542 6.66667ZM20.5625 6.66667C20.5625 7.30761 20.3079 7.92229 19.8547 8.37551C19.4015 8.82872 18.7868 9.08333 18.1458 9.08333C17.5049 9.08333 16.8902 8.82872 16.437 8.37551C15.9838 7.92229 15.7292 7.30761 15.7292 6.66667C15.7292 6.02573 15.9838 5.41104 16.437 4.95782C16.8902 4.50461 17.5049 4.25 18.1458 4.25C18.7868 4.25 19.4015 4.50461 19.8547 4.95782C20.3079 5.41104 20.5625 6.02573 20.5625 6.66667Z" fill="black"/>
<path fill-rule="evenodd" clip-rule="evenodd" d="M15.1812 10.189C15.5182 9.86731 15.966 9.68773 16.4319 9.6875H18.8981C19.7826 9.6875 20.6061 9.98837 21.2404 10.5877C21.8506 11.1641 22.1684 11.903 22.2983 12.6032C22.5025 13.704 22.2911 14.9069 21.7709 15.9732V20.8646C21.7709 21.2436 21.6284 21.6088 21.3717 21.8877C21.115 22.1665 20.7628 22.3386 20.3851 22.3699C20.0073 22.4012 19.6316 22.2893 19.3326 22.0564C19.0335 21.8236 18.8329 21.4868 18.7706 21.1129L18.448 19.1771L18.1254 21.1129C18.0631 21.4868 17.8625 21.8236 17.5634 22.0564C17.2643 22.2893 16.8886 22.4012 16.5109 22.3699C16.1332 22.3386 15.781 22.1665 15.5243 21.8877C15.2675 21.6088 15.125 21.2436 15.1251 20.8646V15.1812C14.8495 15.3403 14.537 15.424 14.2188 15.4241H11.1364C10.6556 15.4241 10.1946 15.2331 9.85472 14.8932C9.51481 14.5533 9.32385 14.0923 9.32385 13.6116C9.32385 13.1309 9.51481 12.6698 9.85472 12.3299C10.1946 11.99 10.6556 11.7991 11.1364 11.7991H13.4926L15.1812 10.189ZM16.3334 17.2245V20.8646C16.3336 20.9403 16.3622 21.0131 16.4135 21.0687C16.4649 21.1243 16.5352 21.1586 16.6106 21.1648C16.686 21.171 16.761 21.1487 16.8208 21.1023C16.8806 21.0559 16.9207 20.9887 16.9333 20.9141L17.5635 17.1345C17.5869 16.9934 17.6597 16.8652 17.7687 16.7727C17.8778 16.6802 18.0162 16.6294 18.1592 16.6294H18.7368C18.8798 16.6294 19.0181 16.6802 19.1272 16.7727C19.2363 16.8652 19.309 16.9934 19.3325 17.1345L19.9626 20.9141C19.9752 20.9887 20.0154 21.0559 20.0752 21.1023C20.1349 21.1487 20.2099 21.171 20.2853 21.1648C20.3608 21.1586 20.4311 21.1243 20.4824 21.0687C20.5338 21.0131 20.5624 20.9403 20.5626 20.8646V15.8295C20.5625 15.7327 20.5858 15.6374 20.6302 15.5515C21.0966 14.6513 21.2664 13.6647 21.1105 12.8237C21.0157 12.3126 20.794 11.8281 20.4109 11.4662C20.02 11.097 19.5016 10.8958 18.8981 10.8958H16.4325C16.2772 10.8958 16.1274 10.9556 16.015 11.0626L14.1517 12.84C14.0395 12.9473 13.8902 13.0073 13.7349 13.0074H11.1364C10.9761 13.0074 10.8224 13.071 10.7091 13.1844C10.5958 13.2977 10.5322 13.4513 10.5322 13.6116C10.5322 13.7718 10.5958 13.9255 10.7091 14.0388C10.8224 14.1521 10.9761 14.2157 11.1364 14.2157H14.2188C14.3741 14.2156 14.5234 14.1557 14.6357 14.0484L15.3124 13.4031C15.398 13.3215 15.5056 13.2668 15.622 13.2458C15.7384 13.2249 15.8584 13.2385 15.9671 13.2851C16.0759 13.3317 16.1685 13.4091 16.2336 13.5078C16.2987 13.6066 16.3334 13.7223 16.3334 13.8405V17.2251V17.2245Z" fill="black"/>
</svg>
